HIERARCHY
ROOT Hips
{
  OFFSET 0.000 67.371 0.000
  CHANNELS 6 Xposition Yposition Zposition Zrotation Xrotation Yrotation
  JOINT LeftUpLeg
  {
    OFFSET 6.947 1.246 3.040
    CHANNELS 6 Xposition Yposition Zposition Zrotation Xrotation Yrotation
    JOINT LeftLeg
    {
      OFFSET 0.000 -34.764 0.000
      CHANNELS 6 Xposition Yposition Zposition Zrotation Xrotation Yrotation
      JOINT LeftFoot
      {
        OFFSET 0.000 -33.854 0.000
        CHANNELS 6 Xposition Yposition Zposition Zrotation Xrotation Yrotation
        End Site
        {
          OFFSET 0.000 0.000 9.850
        }
      }
    }
  }
  JOINT RightUpLeg
  {
    OFFSET -6.947 1.246 3.040
    CHANNELS 6 Xposition Yposition Zposition Zrotation Xrotation Yrotation
    JOINT RightLeg
    {
      OFFSET 0.000 -34.764 0.000
      CHANNELS 6 Xposition Yposition Zposition Zrotation Xrotation Yrotation
      JOINT RightFoot
      {
        OFFSET 0.000 -33.854 0.000
        CHANNELS 6 Xposition Yposition Zposition Zrotation Xrotation Yrotation
        End Site
        {
          OFFSET 0.000 0.000 9.850
        }
      }
    }
  }
  JOINT Spine
  {
    OFFSET 0.000 30.692 0.000
    CHANNELS 6 Xposition Yposition Zposition Zrotation Xrotation Yrotation
    JOINT Spine1
    {
      OFFSET 0.000 22.756 0.000
      CHANNELS 6 Xposition Yposition Zposition Zrotation Xrotation Yrotation
      JOINT LeftShoulder
      {
        OFFSET 1.624 -0.480 0.099
        CHANNELS 6 Xposition Yposition Zposition Zrotation Xrotation Yrotation
        JOINT LeftArm
        {
          OFFSET 15.106 0.000 0.000
          CHANNELS 6 Xposition Yposition Zposition Zrotation Xrotation Yrotation
          JOINT LeftForeArm
          {
            OFFSET 27.389 0.000 0.000
            CHANNELS 6 Xposition Yposition Zposition Zrotation Xrotation Yrotation
            JOINT LeftHand
            {
              OFFSET 22.792 0.000 0.000
              CHANNELS 6 Xposition Yposition Zposition Zrotation Xrotation Yrotation
              JOINT LeftHandThumb1
              {
                OFFSET 0.000 0.000 0.000
                CHANNELS 6 Xposition Yposition Zposition Zrotation Xrotation Yrotation
                JOINT LeftHandThumb2
                {
                  OFFSET 0.000 0.000 0.000
                  CHANNELS 6 Xposition Yposition Zposition Zrotation Xrotation Yrotation
                  JOINT LeftHandThumb3
                  {
                    OFFSET 0.000 0.000 0.000
                    CHANNELS 6 Xposition Yposition Zposition Zrotation Xrotation Yrotation
                    End Site
                    {
                      OFFSET 0.000 0.000 0.000
                    }
                  }
                }
              }
              JOINT LeftHandIndex1
              {
                OFFSET 0.000 0.000 0.000
                CHANNELS 6 Xposition Yposition Zposition Zrotation Xrotation Yrotation
                JOINT LeftHandIndex2
                {
                  OFFSET 0.000 0.000 0.000
                  CHANNELS 6 Xposition Yposition Zposition Zrotation Xrotation Yrotation
                  JOINT LeftHandIndex3
                  {
                    OFFSET 0.000 0.000 0.000
                    CHANNELS 6 Xposition Yposition Zposition Zrotation Xrotation Yrotation
                    End Site
                    {
                      OFFSET 0.000 0.000 0.000
                    }
                  }
                }
              }
              JOINT LeftHandMiddle1
              {
                OFFSET 0.000 0.000 0.000
                CHANNELS 6 Xposition Yposition Zposition Zrotation Xrotation Yrotation
                JOINT LeftHandMiddle2
                {
                  OFFSET 0.000 0.000 0.000
                  CHANNELS 6 Xposition Yposition Zposition Zrotation Xrotation Yrotation
                  JOINT LeftHandMiddle3
                  {
                    OFFSET 0.000 0.000 0.000
                    CHANNELS 6 Xposition Yposition Zposition Zrotation Xrotation Yrotation
                    End Site
                    {
                      OFFSET 0.000 0.000 0.000
                    }
                  }
                }
              }
              JOINT LeftHandRing1
              {
                OFFSET 0.000 0.000 0.000
                CHANNELS 6 Xposition Yposition Zposition Zrotation Xrotation Yrotation
                JOINT LeftHandRing2
                {
                  OFFSET 0.000 0.000 0.000
                  CHANNELS 6 Xposition Yposition Zposition Zrotation Xrotation Yrotation
                  JOINT LeftHandRing3
                  {
                    OFFSET 0.000 0.000 0.000
                    CHANNELS 6 Xposition Yposition Zposition Zrotation Xrotation Yrotation
                    End Site
                    {
                      OFFSET 0.000 0.000 0.000
                    }
                  }
                }
              }
              JOINT LeftHandPinky1
              {
                OFFSET 0.000 0.000 0.000
                CHANNELS 6 Xposition Yposition Zposition Zrotation Xrotation Yrotation
                JOINT LeftHandPinky2
                {
                  OFFSET 0.000 0.000 0.000
                  CHANNELS 6 Xposition Yposition Zposition Zrotation Xrotation Yrotation
                  JOINT LeftHandPinky3
                  {
                    OFFSET 0.000 0.000 0.000
                    CHANNELS 6 Xposition Yposition Zposition Zrotation Xrotation Yrotation
                    End Site
                    {
                      OFFSET 0.000 0.000 0.000
                    }
                  }
                }
              }
            }
          }
        }
      }
      JOINT RightShoulder
      {
        OFFSET -1.624 -0.480 0.099
        CHANNELS 6 Xposition Yposition Zposition Zrotation Xrotation Yrotation
        JOINT RightArm
        {
          OFFSET -15.106 0.000 0.000
          CHANNELS 6 Xposition Yposition Zposition Zrotation Xrotation Yrotation
          JOINT RightForeArm
          {
            OFFSET -27.389 0.000 0.000
            CHANNELS 6 Xposition Yposition Zposition Zrotation Xrotation Yrotation
            JOINT RightHand
            {
              OFFSET -22.792 0.000 0.000
              CHANNELS 6 Xposition Yposition Zposition Zrotation Xrotation Yrotation
              JOINT RightHandThumb1
              {
                OFFSET -0.000 0.000 0.000
                CHANNELS 6 Xposition Yposition Zposition Zrotation Xrotation Yrotation
                JOINT RightHandThumb2
                {
                  OFFSET -0.000 0.000 0.000
                  CHANNELS 6 Xposition Yposition Zposition Zrotation Xrotation Yrotation
                  JOINT RightHandThumb3
                  {
                    OFFSET -0.000 0.000 0.000
                    CHANNELS 6 Xposition Yposition Zposition Zrotation Xrotation Yrotation
                    End Site
                    {
                      OFFSET -0.000 0.000 0.000
                    }
                  }
                }
              }
              JOINT RightHandIndex1
              {
                OFFSET -0.000 0.000 0.000
                CHANNELS 6 Xposition Yposition Zposition Zrotation Xrotation Yrotation
                JOINT RightHandIndex2
                {
                  OFFSET -0.000 0.000 0.000
                  CHANNELS 6 Xposition Yposition Zposition Zrotation Xrotation Yrotation
                  JOINT RightHandIndex3
                  {
                    OFFSET -0.000 0.000 0.000
                    CHANNELS 6 Xposition Yposition Zposition Zrotation Xrotation Yrotation
                    End Site
                    {
                      OFFSET -0.000 0.000 0.000
                    }
                  }
                }
              }
              JOINT RightHandMiddle1
              {
                OFFSET -0.000 0.000 0.000
                CHANNELS 6 Xposition Yposition Zposition Zrotation Xrotation Yrotation
                JOINT RightHandMiddle2
                {
                  OFFSET -0.000 0.000 0.000
                  CHANNELS 6 Xposition Yposition Zposition Zrotation Xrotation Yrotation
                  JOINT RightHandMiddle3
                  {
                    OFFSET -0.000 0.000 0.000
                    CHANNELS 6 Xposition Yposition Zposition Zrotation Xrotation Yrotation
                    End Site
                    {
                      OFFSET -0.000 0.000 0.000
                    }
                  }
                }
              }
              JOINT RightHandRing1
              {
                OFFSET -0.000 0.000 0.000
                CHANNELS 6 Xposition Yposition Zposition Zrotation Xrotation Yrotation
                JOINT RightHandRing2
                {
                  OFFSET -0.000 0.000 0.000
                  CHANNELS 6 Xposition Yposition Zposition Zrotation Xrotation Yrotation
                  JOINT RightHandRing3
                  {
                    OFFSET -0.000 0.000 0.000
                    CHANNELS 6 Xposition Yposition Zposition Zrotation Xrotation Yrotation
                    End Site
                    {
                      OFFSET -0.000 0.000 0.000
                    }
                  }
                }
              }
              JOINT RightHandPinky1
              {
                OFFSET -0.000 0.000 0.000
                CHANNELS 6 Xposition Yposition Zposition Zrotation Xrotation Yrotation
                JOINT RightHandPinky2
                {
                  OFFSET -0.000 0.000 0.000
                  CHANNELS 6 Xposition Yposition Zposition Zrotation Xrotation Yrotation
                  JOINT RightHandPinky3
                  {
                    OFFSET -0.000 0.000 0.000
                    CHANNELS 6 Xposition Yposition Zposition Zrotation Xrotation Yrotation
                    End Site
                    {
                      OFFSET -0.000 0.000 0.000
                    }
                  }
                }
              }
            }
          }
        }
      }
      JOINT Neck
      {
        OFFSET 0.000 0.754 0.000
        CHANNELS 6 Xposition Yposition Zposition Zrotation Xrotation Yrotation
        JOINT Head
        {
          OFFSET 0.000 6.846 0.000
          CHANNELS 6 Xposition Yposition Zposition Zrotation Xrotation Yrotation
          End Site
          {
            OFFSET 0.000 15.969 0.000
          }
        }
      }
    }
  }
}
MOTION
Frames:	4
Frame Time:	0.033333
128.80132 80.63329 -219.29214 -0.10735 5.56903 -66.35794 7.77410 1.28634 2.73876 21.69182 -22.59406 55.14569 0.00001 -35.53300 0.00001 42.27869 33.81239 -113.91320 0.00002 -32.34574 0.00002 1.78916 14.32488 -7.19551 -3.86163 -0.00063 2.73879 7.04110 -3.80284 62.47998 0.00001 -46.11120 -0.00005 12.33580 3.96042 -30.15975 0.00001 -23.96857 0.00000 9.86872 34.88895 -16.91670 0.00335 28.97018 -0.00321 -1.14747 1.60819 -1.19424 0.00571 21.37088 0.00146 -1.50136 2.01248 -1.09506 1.22216 -0.27636 0.09270 -12.67073 0.95294 -4.23102 11.30788 -0.00767 -0.00002 -55.39193 -42.09347 -0.12524 23.12989 -0.00002 0.00101 -16.24353 -0.67003 -7.88892 27.63778 0.00001 0.00000 -22.71747 -0.92007 -2.20099 4.87700 -1.04399 3.60801 -41.57595 -8.45724 -7.72882 2.66501 0.00001 0.00002 0.00000 -0.00000 5.00000 2.54298 -0.00001 0.00000 -0.00001 0.00000 60.00001 9.23197 -0.30099 2.14400 -80.00000 -0.00000 0.00001 4.22503 0.00001 0.00000 -90.00000 -0.00000 0.00000 2.65402 -0.00003 0.00000 -70.00000 -0.00000 0.00000 8.91998 0.00000 0.00000 -80.00000 -0.00000 0.00001 4.86300 0.00000 -0.00002 -90.00000 -0.00000 0.00000 2.76500 -0.00000 0.00000 -70.00000 -0.00000 0.00000 8.68900 -0.12600 -2.08700 -80.00000 -0.00000 0.00001 4.53800 0.00000 0.00000 -90.00000 -0.00000 0.00000 2.30500 -0.00002 0.00000 -70.00000 -0.00000 0.00000 8.39097 -0.81699 -3.75800 -80.00000 -0.00000 0.00001 3.04400 0.00000 0.00000 -90.00000 -0.00000 0.00000 1.97500 0.00000 0.00002 -70.00000 -0.00000 0.00000 -1.61434 -0.72103 0.09270 23.99709 1.33746 3.00158 -15.93444 0.01126 0.00003 59.83724 32.74157 6.68832 -28.07723 0.00503 -0.00002 -17.99918 -2.49877 23.24822 -21.85888 0.00000 -0.00002 -3.94418 -0.32481 5.65494 -4.87700 -1.04401 3.60801 37.43813 21.26626 8.20656 -2.66500 -0.00001 -0.00001 -0.00000 -0.00000 -5.00000 -2.54300 -0.00001 -0.00002 0.00000 -0.00000 -60.00000 -9.23199 -0.30102 2.14400 80.00000 -0.00000 0.00000 -4.22500 0.00002 0.00000 90.00000 -0.00000 0.00001 -2.65402 -0.00002 -0.00005 70.00000 0.00000 0.00000 -8.92000 -0.00002 0.00000 80.00000 -0.00000 0.00000 -4.86299 0.00000 0.00000 90.00000 -0.00000 0.00001 -2.76501 -0.00001 0.00000 69.99999 0.00000 0.00000 -8.68899 -0.12602 -2.08700 80.00000 -0.00000 0.00000 -4.53799 0.00001 0.00000 90.00000 -0.00000 0.00001 -2.30502 0.00001 -0.00005 69.99999 0.00000 0.00000 -8.39100 -0.81701 -3.75800 80.00000 -0.00000 0.00000 -3.04400 0.00000 -0.00002 90.00000 -0.00000 0.00001 -1.97500 0.00001 -0.00002 70.00000 0.00000 0.00000 -0.00015 0.71364 0.00000 0.00015 -0.00010 -0.00002 -0.00001 6.33079 0.00000 17.84002 19.22548 68.02885 
126.65337 80.05518 -217.94077 -0.06319 4.30441 -64.85529 7.79254 1.01077 2.80947 12.25621 -27.00251 -16.27934 -0.00912 -37.20776 0.02364 -19.81453 49.55036 -16.04029 0.00250 -31.57739 0.02284 7.49869 32.82934 -13.48270 -3.95199 0.18560 2.80863 4.87898 -1.43463 -14.70374 -0.11168 -46.91798 0.07500 3.68554 18.20025 12.23958 -0.33353 -30.77446 0.20541 5.36395 -33.55489 10.27018 0.00335 29.34973 -0.00321 -1.16206 1.93048 -1.10123 0.00571 21.60049 0.00146 -1.40230 2.19996 -1.02260 1.26777 -0.34435 0.08072 -15.15557 0.89556 -3.32212 11.85395 -0.00767 -0.00425 -47.46385 11.97171 -2.94308 21.50830 -0.00403 0.00101 -10.68891 8.02350 -14.19116 28.96359 0.00355 0.00336 -5.21946 9.10778 -28.75678 4.87700 -1.04399 3.60801 -41.57595 -8.45724 -7.72882 2.66501 0.00001 0.00002 0.00000 -0.00000 5.00000 2.54298 -0.00001 0.00000 -0.00001 0.00000 60.00001 9.23197 -0.30099 2.14400 -80.00000 -0.00000 0.00001 4.22503 0.00001 0.00000 -90.00000 -0.00000 0.00000 2.65402 -0.00003 0.00000 -70.00000 -0.00000 0.00000 8.91998 0.00000 0.00000 -80.00000 -0.00000 0.00001 4.86300 0.00000 -0.00002 -90.00000 -0.00000 0.00000 2.76500 -0.00000 0.00000 -70.00000 -0.00000 0.00000 8.68900 -0.12600 -2.08700 -80.00000 -0.00000 0.00001 4.53800 0.00000 0.00000 -90.00000 -0.00000 0.00000 2.30500 -0.00002 0.00000 -70.00000 -0.00000 0.00000 8.39097 -0.81699 -3.75800 -80.00000 -0.00000 0.00001 3.04400 0.00000 0.00000 -90.00000 -0.00000 0.00000 1.97500 0.00000 0.00002 -70.00000 -0.00000 0.00000 -1.64185 -0.68720 0.07682 22.66590 1.02807 2.46131 -16.03243 0.01126 0.00003 61.76478 3.85998 7.64122 -28.03277 0.00503 0.00424 -5.30402 -3.96437 32.95673 -21.44258 0.00460 0.00635 5.90609 0.59272 6.76165 -4.87700 -1.04401 3.60801 37.43813 21.26626 8.20656 -2.66500 -0.00001 -0.00001 -0.00000 -0.00000 -5.00000 -2.54300 -0.00001 -0.00002 0.00000 -0.00000 -60.00000 -9.23199 -0.30102 2.14400 80.00000 -0.00000 0.00000 -4.22500 0.00002 0.00000 90.00000 -0.00000 0.00001 -2.65402 -0.00002 -0.00005 70.00000 0.00000 0.00000 -8.92000 -0.00002 0.00000 80.00000 -0.00000 0.00000 -4.86299 0.00000 0.00000 90.00000 -0.00000 0.00001 -2.76501 -0.00001 0.00000 69.99999 0.00000 0.00000 -8.68899 -0.12602 -2.08700 80.00000 -0.00000 0.00000 -4.53799 0.00001 0.00000 90.00000 -0.00000 0.00001 -2.30502 0.00001 -0.00005 69.99999 0.00000 0.00000 -8.39100 -0.81701 -3.75800 80.00000 -0.00000 0.00000 -3.04400 0.00000 -0.00002 90.00000 -0.00000 0.00001 -1.97500 0.00001 -0.00002 70.00000 0.00000 0.00000 -0.00015 0.71364 0.00000 0.00015 -0.00010 -0.00002 -0.00142 6.39530 0.00584 18.37708 22.01468 56.98616 
125.85204 80.13325 -217.63483 0.23375 4.16563 -64.33948 7.80087 0.98516 2.82436 9.33672 -30.07390 -11.69239 -0.01379 -36.86906 0.11301 -13.20606 52.65207 -25.06718 0.07488 -31.73957 0.09662 5.10173 32.08438 -7.65473 -4.00368 0.21185 2.84843 6.92181 -0.21835 -7.51167 -0.38829 -43.44050 0.28120 -0.44313 9.99061 8.20171 -0.30947 -30.91028 0.60278 5.58923 -21.51911 17.24501 0.00335 29.28065 -0.00321 -1.10333 1.85843 -1.18541 0.00571 21.55253 0.00146 -1.38638 2.16251 -1.10394 1.26775 -0.35913 0.09057 -15.73989 0.81124 -2.96196 11.93293 -0.00767 -0.01430 -46.77989 8.08715 -1.89043 21.49970 -0.01679 -0.00161 -12.26828 8.28631 -15.20256 28.67427 0.01303 0.01903 -8.38621 9.59510 -24.82940 4.87700 -1.04399 3.60801 -41.57595 -8.45724 -7.72882 2.66501 0.00001 0.00002 0.00000 -0.00000 5.00000 2.54298 -0.00001 0.00000 -0.00001 0.00000 60.00001 9.23197 -0.30099 2.14400 -80.00000 -0.00000 0.00001 4.22503 0.00001 0.00000 -90.00000 -0.00000 0.00000 2.65402 -0.00003 0.00000 -70.00000 -0.00000 0.00000 8.91998 0.00000 0.00000 -80.00000 -0.00000 0.00001 4.86300 0.00000 -0.00002 -90.00000 -0.00000 0.00000 2.76500 -0.00000 0.00000 -70.00000 -0.00000 0.00000 8.68900 -0.12600 -2.08700 -80.00000 -0.00000 0.00001 4.53800 0.00000 0.00000 -90.00000 -0.00000 0.00000 2.30500 -0.00002 0.00000 -70.00000 -0.00000 0.00000 8.39097 -0.81699 -3.75800 -80.00000 -0.00000 0.00001 3.04400 0.00000 0.00000 -90.00000 -0.00000 0.00000 1.97500 0.00000 0.00002 -70.00000 -0.00000 0.00000 -1.65044 -0.68772 0.06637 22.57084 0.91982 2.20443 -16.11216 0.01126 0.00785 61.03877 6.66628 7.35433 -27.69712 0.00503 0.01669 -6.84832 -3.67601 33.00606 -21.36499 0.01832 0.04604 3.35151 1.42174 7.26530 -4.87700 -1.04401 3.60801 37.43813 21.26626 8.20656 -2.66500 -0.00001 -0.00001 -0.00000 -0.00000 -5.00000 -2.54300 -0.00001 -0.00002 0.00000 -0.00000 -60.00000 -9.23199 -0.30102 2.14400 80.00000 -0.00000 0.00000 -4.22500 0.00002 0.00000 90.00000 -0.00000 0.00001 -2.65402 -0.00002 -0.00005 70.00000 0.00000 0.00000 -8.92000 -0.00002 0.00000 80.00000 -0.00000 0.00000 -4.86299 0.00000 0.00000 90.00000 -0.00000 0.00001 -2.76501 -0.00001 0.00000 69.99999 0.00000 0.00000 -8.68899 -0.12602 -2.08700 80.00000 -0.00000 0.00000 -4.53799 0.00001 0.00000 90.00000 -0.00000 0.00001 -2.30502 0.00001 -0.00005 69.99999 0.00000 0.00000 -8.39100 -0.81701 -3.75800 80.00000 -0.00000 0.00000 -3.04400 0.00000 -0.00002 90.00000 -0.00000 0.00001 -1.97500 0.00001 -0.00002 70.00000 0.00000 0.00000 -0.00015 0.71364 0.00000 0.00015 -0.00010 -0.00002 -0.01298 6.37996 0.04304 18.32638 21.73565 55.37489 
124.23245 80.05426 -217.24391 0.39665 3.90050 -63.56474 7.81116 0.94283 2.85405 5.34529 -32.26555 -13.08283 -0.03383 -36.73352 0.27806 -8.66471 49.98541 -25.21724 0.29435 -31.92992 0.29755 -1.03096 26.80184 5.84139 -4.07945 0.24129 2.93757 8.09751 1.51488 -7.35582 -0.41770 -41.86086 0.33141 -0.53876 8.32028 8.50297 0.64831 -29.05632 0.47155 2.25275 -8.19269 11.87035 0.00460 29.24303 -0.00321 -1.08195 1.82372 -1.31991 0.00571 21.52059 0.00146 -1.38192 2.15496 -1.23743 1.27132 -0.36899 0.10146 -16.01129 0.69779 -2.53283 12.04155 -0.00767 -0.02409 -45.72417 8.62936 -0.93013 21.46657 -0.02170 -0.01665 -13.49145 9.47770 -17.12655 28.51350 0.01439 0.04535 -8.87847 11.20798 -21.22721 4.87700 -1.04399 3.60801 -41.57595 -8.45724 -7.72882 2.66501 0.00001 0.00002 0.00000 -0.00000 5.00000 2.54298 -0.00001 0.00000 -0.00001 0.00000 60.00001 9.23197 -0.30099 2.14400 -80.00000 -0.00000 0.00001 4.22503 0.00001 0.00000 -90.00000 -0.00000 0.00000 2.65402 -0.00003 0.00000 -70.00000 -0.00000 0.00000 8.91998 0.00000 0.00000 -80.00000 -0.00000 0.00001 4.86300 0.00000 -0.00002 -90.00000 -0.00000 0.00000 2.76500 -0.00000 0.00000 -70.00000 -0.00000 0.00000 8.68900 -0.12600 -2.08700 -80.00000 -0.00000 0.00001 4.53800 0.00000 0.00000 -90.00000 -0.00000 0.00000 2.30500 -0.00002 0.00000 -70.00000 -0.00000 0.00000 8.39097 -0.81699 -3.75800 -80.00000 -0.00000 0.00001 3.04400 0.00000 0.00000 -90.00000 -0.00000 0.00000 1.97500 0.00000 0.00002 -70.00000 -0.00000 0.00000 -1.64930 -0.67613 0.04513 22.19003 0.77972 1.90410 -16.11719 0.01126 0.04314 60.55814 7.56622 7.17837 -27.44498 0.00427 0.02579 -7.42428 -3.39294 34.33206 -21.26780 0.01911 0.07074 0.90571 2.15160 7.46445 -4.87700 -1.04401 3.60801 37.43813 21.26626 8.20656 -2.66500 -0.00001 -0.00001 -0.00000 -0.00000 -5.00000 -2.54300 -0.00001 -0.00002 0.00000 -0.00000 -60.00000 -9.23199 -0.30102 2.14400 80.00000 -0.00000 0.00000 -4.22500 0.00002 0.00000 90.00000 -0.00000 0.00001 -2.65402 -0.00002 -0.00005 70.00000 0.00000 0.00000 -8.92000 -0.00002 0.00000 80.00000 -0.00000 0.00000 -4.86299 0.00000 0.00000 90.00000 -0.00000 0.00001 -2.76501 -0.00001 0.00000 69.99999 0.00000 0.00000 -8.68899 -0.12602 -2.08700 80.00000 -0.00000 0.00000 -4.53799 0.00001 0.00000 90.00000 -0.00000 0.00001 -2.30502 0.00001 -0.00005 69.99999 0.00000 0.00000 -8.39100 -0.81701 -3.75800 80.00000 -0.00000 0.00000 -3.04400 0.00000 -0.00002 90.00000 -0.00000 0.00001 -1.97500 0.00001 -0.00002 70.00000 0.00000 0.00000 -0.00015 0.71364 0.00000 0.00015 -0.00010 -0.00002 -0.03460 6.36587 0.10159 18.23531 22.21778 51.93499 
